<?xml version="1.0" standalone="no"?><!DOCTYPE svg PUBLIC "-//W3C//DTD SVG 1.1//EN" "http://www.w3.org/Graphics/SVG/1.1/DTD/svg11.dtd"><svg t="1729080024327" class="icon" viewBox="0 0 1024 1024" version="1.1" xmlns="http://www.w3.org/2000/svg" p-id="11058" xmlns:xlink="http://www.w3.org/1999/xlink" width="256" height="256"><path d="M380.7232 533.2992l-62.6688 78.336 105.5744-1.9456zM507.4944 696.2176l5.4272-57.7536-37.2736 0.8192zM318.0544 642.3552l161.8944 79.4624c0.9216-1.1264 1.9456-2.1504 2.9696-3.1744 0.4096-0.4096 0.8192-0.7168 1.2288-1.1264L440.6272 640l-122.5728 2.3552zM411.3408 445.8496L348.5696 412.672l36.864 65.6384zM519.4752 310.6816l-158.8224 69.3248c-0.2048 1.4336-0.4096 2.7648-0.8192 4.096l70.8608 37.376 88.7808-110.7968zM318.464 422.6048c-0.3072-0.4096-0.512-0.9216-0.7168-1.4336h-0.4096l-22.9376 170.8032 70.0416-87.552-45.9776-81.8176zM537.088 708.5056c5.3248 2.56 10.1376 6.0416 14.336 10.1376 0.3072 0.3072 0.512 0.6144 0.8192 0.9216l132.3008-84.3776L543.744 637.952l-6.656 70.5536z" fill="#889AA4" p-id="11059"></path><path d="M512 5.12C232.2432 5.12 5.4272 232.0384 5.4272 512S232.2432 1018.88 512 1018.88s506.5728-226.9184 506.5728-506.88S791.7568 5.12 512 5.12z m278.4256 632.2176c-8.9088 8.9088-21.1968 14.4384-34.7136 14.4384-10.1376 0-19.3536-3.3792-27.0336-8.9088-0.6144 0.512-1.2288 1.024-1.9456 1.4336L565.248 747.2128c0.2048 1.6384 0.3072 3.3792 0.3072 5.12 0 13.312-5.3248 25.6-14.0288 34.304-8.4992 8.6016-20.48 14.1312-33.6896 14.1312h-0.3072c-13.4144 0-25.8048-5.3248-34.5088-14.1312-8.704-8.704-14.0288-20.992-14.0288-34.4064v-2.048l-164.4544-80.6912c-0.8192 0.9216-1.6384 1.7408-2.4576 2.56-8.704 8.704-20.5824 14.4384-33.9968 14.4384-13.4144 0-25.9072-5.8368-34.6112-14.4384-8.704-8.4992-14.336-20.2752-14.336-33.3824v-0.3072c0-13.312 5.5296-25.4976 14.2336-34.304 7.7824-7.5776 18.2272-12.5952 29.696-13.7216l24.2688-176.7424c-3.1744-1.9456-6.0416-4.3008-8.704-6.8608-8.704-8.704-14.0288-20.3776-14.0288-33.6896s5.3248-25.6 14.0288-34.4064c8.8064-8.6016 20.8896-14.1312 34.304-14.1312h0.3072c13.4144 0 25.1904 5.4272 33.8944 14.1312 2.8672 2.8672 5.4272 6.3488 7.4752 9.9328l164.4544-71.5776c-0.2048-1.7408-0.3072-3.4816-0.3072-5.3248 0-13.312 5.2224-25.4976 14.0288-34.304 8.8064-8.6016 20.8896-13.9264 34.2016-13.9264 0.2048-0.1024 0.3072-0.1024 0.4096-0.1024 12.9024 0 25.1904 5.2224 33.8944 13.9264s14.0288 20.8896 14.0288 34.304c0 13.312-5.3248 24.9856-14.0288 33.6896-0.3072 0.3072-0.6144 0.6144-1.024 0.9216L765.952 556.544c9.4208 2.048 17.92 6.9632 24.4736 13.4144 8.704 8.192 14.0288 20.2752 14.0288 33.6896s-5.3248 25.4976-14.0288 33.6896z" fill="#889AA4" p-id="11060"></path><path d="M557.8752 488.6528l160.768 84.8896c1.024-1.2288 2.1504-2.4576 3.3792-3.584 3.1744-3.1744 6.7584-5.9392 10.6496-8.192L573.5424 321.6384l-15.6672 167.0144zM401.6128 507.1872l57.0368 101.888 57.2416-1.1264 9.5232-101.6832-86.4256-45.7728zM707.1744 602.4192l-152.3712-80.6912-8.0896 85.6064 160.6656-2.9696v-0.8192-1.024c-0.1024 0-0.2048 0-0.2048-0.1024zM458.4448 436.1216l70.144 37.0688 13.312-141.312z" fill="#889AA4" p-id="11061"></path></svg>