<svg t="1728627919120" class="icon" viewBox="0 0 1024 1024" version="1.1" xmlns="http://www.w3.org/2000/svg" p-id="4029" width="200" height="200"><path d="M937.033 904.5c11.6 0 18.9-3.1 22.9-11.1 4-8.1 2.1-53.2 2.1-65.9v-203c0-29.2-1.8-35.2-32-35.2h-203c-69.3 0-60.4-6.5-60.4 76.2v202c0 29.5 0.4 37 31.4 36.9h67c13.6-79.8 124.5-79.8 138.1 0 11.3 0 22.6 0 33.9 0.1z m-309.7-0.4c14.9-0.1 19.6-11.1 19.6-25.6V696.4c0-15.1-2.7-26.1-17-28.1l-91-0.3c-16.4 0.6-21.3 9.6-28.4 17.9-3.1 3.6-6.6 8.7-9.9 13.1-13.4 17.9-38.1 48-46.1 67-7.5 18-4.6 63.8-4.6 86.4 0 36.7-5.8 56.8 39 51.6 3.8-8.9 3.3-14.9 8.5-24.1 29.6-52.4 114.3-49.3 129.9 24.2z m-144.1-117.9c0.5-10.5 27.4-44.2 35.7-55.8 7.1-9.9 13.4-22.4 23-23 12.7-0.7 33.1-0.6 45.9 0.2v78.5c-27.5 0.9-75.9 0.4-104.6 0.1z m285.267 118c-6.4 27.4 13 49.7 34.2 54.4 27.5 6.2 49.1-12.6 54.2-33.9 6.8-28.2-12.5-49.2-34-54.7-27.6-6.9-49.5 13.1-54.4 34.2z m-276.7 5.5c-2.5 26.7 17.1 47.6 40.8 49.7 26.6 2.5 47.5-17.3 49.5-41.4 2.3-27-17.6-46.5-41.7-48.9-25.5-2.5-46.4 17.6-48.6 40.6z m-414.3-635v684.5h156.3V399.7h549v111.6h156.3V276.7c0-8.4-16.3-12.9-22.9-15.9l-40.6-19.2c-5.7-2.5-8.5-4.6-14.2-7.1-10.5-4.7-17.3-8.1-27.8-12.7-49.7-22.1-113.2-55.6-162.6-76.8L520.4 73.7c-26.8-13-20.7-13.1-41.2-3.9l-134.8 68.1c-9.1 4.6-17.8 8.2-27.4 13.2L102.3 258.9c-5.8 3-24.8 8.2-24.8 15.8zM280 714.3h96.2v83.2H280v-83.2z m0-111h96.2v81.4H280v-81.4z" fill="#ffffff" p-id="4030"></path></svg>