<?xml version="1.0" standalone="no"?><!DOCTYPE svg PUBLIC "-//W3C//DTD SVG 1.1//EN" "http://www.w3.org/Graphics/SVG/1.1/DTD/svg11.dtd"><svg t="1729150772765" class="icon" viewBox="0 0 1024 1024" version="1.1" xmlns="http://www.w3.org/2000/svg" p-id="9449" xmlns:xlink="http://www.w3.org/1999/xlink" width="200" height="200"><path d="M512.27 942c-97.44 0-190.14-38.44-261.72-108.69C175.2 759.38 132 656.89 132 552.11V240.83c0-31.1 20.86-58.81 50.74-67.37l310-88.75a69.786 69.786 0 0 1 38.5-0.01l310 88.76c29.88 8.55 50.76 36.26 50.76 67.37v320.48c0 206.02-167.23 376.76-372.75 380.62-2.33 0.06-4.65 0.07-6.98 0.07zM512 142c-0.94 0-1.86 0.14-2.77 0.39l-309.96 88.74c-4.28 1.23-7.27 5.21-7.27 9.7v311.28c0 88.77 36.66 175.65 100.57 238.38 61.7 60.55 141.78 92.6 225.55 91.46C691.2 878.7 832 734.87 832 561.31V240.83c0-4.48-2.99-8.47-7.29-9.7l-310-88.75c-0.87-0.25-1.79-0.38-2.71-0.38z" p-id="9450"></path><path d="M488 654.01c-91.52 0-166-74.46-166-166S396.47 322 488 322s166 74.47 166 166.01-74.48 166-166 166zM488 382c-58.44 0-106 47.56-106 106.01s47.56 106 106 106 106-47.55 106-106S546.43 382 488 382z" p-id="9451"></path><path d="M672 702c-7.68 0-15.35-2.93-21.21-8.79L566 608.43c-11.72-11.71-11.72-30.71 0-42.42 11.72-11.72 30.7-11.72 42.42 0l84.79 84.79c11.72 11.71 11.72 30.71 0 42.42-5.86 5.86-13.53 8.78-21.21 8.78z" p-id="9452"></path></svg>