<?xml version="1.0" standalone="no"?><!DOCTYPE svg PUBLIC "-//W3C//DTD SVG 1.1//EN" "http://www.w3.org/Graphics/SVG/1.1/DTD/svg11.dtd"><svg t="1728629643111" class="icon" viewBox="0 0 1041 1024" version="1.1" xmlns="http://www.w3.org/2000/svg" p-id="28651" xmlns:xlink="http://www.w3.org/1999/xlink" width="203.3203125" height="200"><path d="M19.957 923.309h1003.832v-34.052H19.957v34.052z m935.618-69.314V370.664L513.889 118.377 70.777 370.664v483.331h68.061v-449.3h748.675v449.3h68.062zM853.479 614.958h-44.69v21.02h-12.672v-21.02h-44.688v101.966h102.05V614.958z m-118.977 118.74v119.219h118.751v-119.22h-51.905v24.897h-14.94v-24.897h-51.906z m-443.586-31.11H275.91v-24.886h-52.157v119.22h119.32v-119.22h-52.156v24.887zM513.889 49.255L2.712 341.2v45.089L513.889 94.352l511.192 291.936V341.2L513.889 49.254zM462.313 852.93l-0.184-402.95h-17.015v17.016h-255.23l0.534-17.183H173.05v403.118h17.358l-0.524-16.975h255.23l-0.164 16.975h17.363z m-272.43-368.918h255.23v150.45h-255.23l0.003-147.096-0.002-3.354z m0 334.928V651.477h255.23V818.94h-255.23zM427.84 509.28h-51.927v24.894h-14.934V509.28h-51.93v102.203H428.37l-0.53-102.203z m170.451 241.8v101.965h102.05V751.08H655.65v21.02h-12.672v-21.02h-44.687z" p-id="28652"></path></svg>