<?xml version="1.0" standalone="no"?><!DOCTYPE svg PUBLIC "-//W3C//DTD SVG 1.1//EN" "http://www.w3.org/Graphics/SVG/1.1/DTD/svg11.dtd"><svg t="1729240452631" class="icon" viewBox="0 0 1024 1024" version="1.1" xmlns="http://www.w3.org/2000/svg" p-id="50442" xmlns:xlink="http://www.w3.org/1999/xlink" width="200" height="200"><path d="M685.7 250.2c0 13.9-5.5 27.2-15.3 37s-23.1 15.3-37 15.3H319.6c-28.9 0-52.3-23.4-52.3-52.3v-17.4h-69.7v627.7h373.2c17.7 0 32.6 13.2 34.6 30.8l0.2 4.1c0 17.7-13.3 32.6-30.8 34.6l-4 0.2H180.1c-26.9 0-49.5-20.5-52.1-47.3l-0.2-5V215.3c0-26.9 20.5-49.5 47.3-52.1l5-0.2h87.2v-17.4c0-28.9 23.4-52.3 52.3-52.3h313.8c13.9 0 27.2 5.5 37 15.3s15.3 23.1 15.3 37V163h87.2c26.9 0 49.5 20.5 52.1 47.3l0.2 5V442c0 18.4-14.4 33.7-32.8 34.8-18.4 1.1-34.5-12.4-36.7-30.7l-0.2-4.1V232.8h-69.7v17.4zM616 163H337v69.7h279V163z m0 0" p-id="50443"></path><path d="M337 651.2h34.9c23.2 0 34.9 11.6 34.9 34.9 0 23.3-11.6 34.9-34.9 34.9H337c-23.2 0-34.9-11.6-34.9-34.9 0.1-23.2 11.7-34.9 34.9-34.9z m0 0" p-id="50444"></path><path d="M337 442h279c23.3 0 34.9 11.6 34.9 34.9 0 23.2-11.6 34.9-34.9 34.9H337c-23.2 0-34.9-11.6-34.9-34.9 0.1-23.3 11.7-34.9 34.9-34.9z m0 0M498.5 653.7l-4 1.9c-24.1 13.1-24.2 48.9 1.4 61.7L625 781.8l64.6 129.1c13.4 26.9 52.4 25.3 63.5-2.6l139.5-348.7c11.4-28.5-16.8-56.7-45.3-45.3L498.5 653.7z m299-44.5l-80.4 201-35-70-2.3-3.9c-3.4-5-7.9-9-13.3-11.7l-70-35 201-80.4z m0 0" p-id="50445"></path></svg>