<?xml version="1.0" standalone="no"?><!DOCTYPE svg PUBLIC "-//W3C//DTD SVG 1.1//EN" "http://www.w3.org/Graphics/SVG/1.1/DTD/svg11.dtd"><svg t="1728629861586" class="icon" viewBox="0 0 1024 1024" version="1.1" xmlns="http://www.w3.org/2000/svg" p-id="7219" xmlns:xlink="http://www.w3.org/1999/xlink" width="200" height="200"><path d="M512 291.84a300.373333 300.373333 0 0 1 300.373333 300.373333v292.352h103.082667a31.573333 31.573333 0 0 1 0 63.146667H108.714667a31.573333 31.573333 0 0 1 0-63.146667H211.626667V592.213333A300.373333 300.373333 0 0 1 512 291.84z m21.76 121.088l-148.138667 244.053333h118.442667L474.453333 840.021333l148.138667-244.053333H504.064l29.696-183.04zM120.490667 317.184l92.245333 53.589333-29.013333 50.517334-92.330667-53.589334a29.184 29.184 0 0 1 29.098667-50.517333z m822.613333 10.496a29.354667 29.354667 0 0 1-10.496 40.106667l-92.245333 53.418666-29.013334-50.517333 92.16-53.504a29.013333 29.013333 0 0 1 39.68 10.496zM760.917333 144.810667c14.08 8.106667 18.773333 25.941333 10.837334 39.936L718.421333 277.333333l-50.346666-29.098666 53.248-92.672a29.013333 29.013333 0 0 1 39.509333-10.752zM285.013333 141.909333a29.013333 29.013333 0 0 1 17.664 13.653334l53.248 92.501333-50.346666 29.184-53.333334-92.586667a29.184 29.184 0 0 1 32.768-42.666666z m226.816-65.706666c17.408 0 31.573333 13.141333 31.573334 29.44v104.96h-63.146667v-104.96c0-16.213333 14.165333-29.354667 31.573333-29.354667z" p-id="7220"></path></svg>