<?xml version="1.0" standalone="no"?><!DOCTYPE svg PUBLIC "-//W3C//DTD SVG 1.1//EN" "http://www.w3.org/Graphics/SVG/1.1/DTD/svg11.dtd"><svg t="1728628095348" class="icon" viewBox="0 0 1024 1024" version="1.1" xmlns="http://www.w3.org/2000/svg" p-id="4301" xmlns:xlink="http://www.w3.org/1999/xlink" width="200" height="200"><path d="M404.992 816.64H295.424v-109.568h109.568v109.568z m0-164.352H295.424V542.72h109.568v109.568z m177.152 290.816c-25.088 0-45.568-20.48-45.568-45.568s20.48-45.568 45.568-45.568 45.568 20.48 45.568 45.568-20.48 45.568-45.568 45.568z m264.704 0c-25.088 0-45.568-20.48-45.568-45.568s20.48-45.568 45.568-45.568 45.568 20.48 45.568 45.568-20.48 45.568-45.568 45.568zM947.2 870.4c0 4.608-2.048 9.216-5.12 12.8-3.584 3.584-8.192 5.12-12.8 5.12H911.36c-4.608-31.232-31.232-55.296-64-55.296s-59.392 24.064-64 55.296h-137.216c-4.608-31.232-31.232-55.296-64-55.296s-59.392 24.064-64 55.296h-48.64c-10.24 0-17.92-8.192-18.432-18.432v-272.384c0-9.728 8.192-18.432 18.432-18.432H783.36c10.24 0 18.432 8.192 18.432 18.432v54.272H865.28c13.312 0 18.944 8.192 27.136 18.432l40.448 72.192s13.824 19.456 13.824 36.864l0.512 91.136z m0-363.52h-164.352V395.776H235.52v547.328H71.68v-711.68l437.76-161.28L947.2 231.424V506.88z" p-id="4302"></path><path d="M831.488 672.768s-3.584-3.584-6.144-3.584h-39.424v80.896h86.528c0-4.096-3.584-9.216-6.144-13.824l-34.816-63.488z" p-id="4303"></path></svg>