<?xml version="1.0" standalone="no"?><!DOCTYPE svg PUBLIC "-//W3C//DTD SVG 1.1//EN" "http://www.w3.org/Graphics/SVG/1.1/DTD/svg11.dtd"><svg t="1728629566860" class="icon" viewBox="0 0 1024 1024" version="1.1" xmlns="http://www.w3.org/2000/svg" p-id="28329" xmlns:xlink="http://www.w3.org/1999/xlink" width="200" height="200"><path d="M896.47786667 821.91246222c-4.66033778 13.98101333-9.32067555 27.96202667-16.31118222 39.61287111 0 2.33016889 37.28270222 46.60337778 16.31118222 69.90506667L884.82702222 943.08124445c-16.31118222 16.31118222-60.58439111-9.32067555-69.90506667-16.31118223-13.98101333 6.99050667-27.96202667 13.98101333-41.94304 16.31118223l2.3301689 0c0 0-6.99050667 60.58439111-39.61287112 60.5843911l-11.65084444 0c-25.63185778 0-39.61287111-51.26371555-41.94304-62.91456-13.98101333-4.66033778-27.96202667-9.32067555-41.94304-18.6413511l2.33016889 2.33016888c0 0-48.93354667 37.28270222-72.23523556 13.98101334l-9.32067555-9.32067556c-18.64135111-18.64135111 11.65084445-62.91456 16.31118222-72.23523556-6.99050667-11.65084445-11.65084445-25.63185778-16.31118222-37.28270222-9.32067555-2.33016889-62.91456-16.31118222-62.91456-41.94304l0-11.65084444c0-27.96202667 48.93354667-37.28270222 60.58439111-39.61287111 4.66033778-13.98101333 9.32067555-25.63185778 16.31118222-39.61287111-4.66033778-6.99050667-34.95253333-53.59388445-16.31118222-72.23523556l11.65084444-9.32067556c20.97152-20.97152 60.58439111 9.32067555 72.23523556 16.31118223 11.65084445-6.99050667 25.63185778-11.65084445 39.61287111-16.31118223 2.33016889-11.65084445 16.31118222-60.58439111 41.94304-60.5843911l11.65084444 0c27.96202667 0 37.28270222 46.60337778 39.61287112 60.5843911 13.98101333 4.66033778 27.96202667 9.32067555 39.6128711 16.31118223 11.65084445-6.99050667 53.59388445-32.62236445 69.90506667-16.31118223l9.32067556 11.65084445c20.97152 20.97152-6.99050667 60.58439111-16.31118223 69.90506667 6.99050667 11.65084445 11.65084445 25.63185778 16.31118223 39.61287111 4.66033778 0 60.58439111 9.32067555 60.58439111 39.61287111l0 11.65084444C957.06225778 805.60128 910.45888 819.58229333 896.47786667 821.91246222zM728.70570667 649.47996445c-69.90506667 0-128.15928889 58.25422222-128.15928889 128.15928888s58.25422222 128.15928889 128.15928889 128.15928889c69.90506667 0 128.15928889-58.25422222 128.15928888-128.15928889S800.94094222 649.47996445 728.70570667 649.47996445zM728.70570667 863.85550222c-46.60337778 0-86.21624889-37.28270222-86.21624889-86.21624889 0-46.60337778 37.28270222-86.21624889 86.21624889-86.21624888 46.60337778 0 86.21624889 37.28270222 86.21624888 86.21624888C814.92195555 824.24263111 775.30908445 863.85550222 728.70570667 863.85550222zM728.70570667 733.36604445c-23.30168889 0-41.94304 18.64135111-41.94304 41.94304 0 23.30168889 18.64135111 41.94304 41.94304 41.94304 23.30168889 0 41.94304-18.64135111 41.94304-41.94304C772.97891555 754.33756445 752.00739555 733.36604445 728.70570667 733.36604445zM679.77216 563.26371555c-18.64135111 4.66033778-34.95253333 11.65084445-51.26371555 20.97152-11.65084445-9.32067555-46.60337778-25.63185778-72.23523556 0l-13.98101334 11.65084445c-23.30168889 23.30168889-4.66033778 62.91456 2.3301689 74.56540445-9.32067555 13.98101333-13.98101333 30.29219555-18.64135112 46.60337777l-6.99050666 4.66033778c-16.31118222 2.33016889-44.27320889 13.98101333-51.26371556 37.28270222l-46.60337778 32.62236445L421.12341333 437.43459555l312.24263112-200.39452444 0 267.96942222C700.74368 509.66983111 684.43249778 549.28270222 679.77216 563.26371555zM83.24892445 192.76686222L395.49155555 15.67402667l312.24263112 177.09283555L395.49155555 393.16138667 83.24892445 192.76686222zM372.18986667 793.95043555L62.27740445 572.58439111 62.27740445 237.04007111 372.18986667 437.43459555 372.18986667 793.95043555z" p-id="28330"></path></svg>