<?xml version="1.0" standalone="no"?><!DOCTYPE svg PUBLIC "-//W3C//DTD SVG 1.1//EN" "http://www.w3.org/Graphics/SVG/1.1/DTD/svg11.dtd"><svg t="1729151534825" class="icon" viewBox="0 0 1024 1024" version="1.1" xmlns="http://www.w3.org/2000/svg" p-id="41406" xmlns:xlink="http://www.w3.org/1999/xlink" width="200" height="200"><path d="M692.906667 34.133333H150.186667c-51.2 0-93.866667 42.666667-93.866667 93.866667v769.706667c0 51.2 42.666667 93.866667 93.866667 93.866666h610.986666c13.653333 0 25.6-11.946667 25.6-25.6v-836.266666c0-52.906667-42.666667-95.573333-93.866666-95.573334zM218.453333 206.506667h180.906667c18.773333 0 34.133333 15.36 34.133333 34.133333s-15.36 34.133333-34.133333 34.133333H218.453333c-18.773333 0-34.133333-15.36-34.133333-34.133333s15.36-34.133333 34.133333-34.133333z m271.36 226.986666H218.453333c-18.773333 0-34.133333-15.36-34.133333-34.133333s15.36-34.133333 34.133333-34.133333h271.36c18.773333 0 34.133333 15.36 34.133334 34.133333s-15.36 34.133333-34.133334 34.133333zM896 440.32h-40.96V989.866667h18.773333c51.2 0 93.866667-42.666667 93.866667-93.866667V512c0-39.253333-32.426667-71.68-71.68-71.68z" fill="#333333" p-id="41407"></path></svg>