<?xml version="1.0" standalone="no"?><!DOCTYPE svg PUBLIC "-//W3C//DTD SVG 1.1//EN" "http://www.w3.org/Graphics/SVG/1.1/DTD/svg11.dtd"><svg t="1729736726316" class="icon" viewBox="0 0 1024 1024" version="1.1" xmlns="http://www.w3.org/2000/svg" p-id="28003" xmlns:xlink="http://www.w3.org/1999/xlink" width="256" height="256"><path d="M636.092 812.376c-5.779 19.79-10.11 41.234-17.334 59.433 0-9.89 7.223-18.991 10.111-28.088a45.674 45.674 0 0 0 0-9.896c1.442-6.572 5.059-13.646 7.223-21.449z m0 0v-12.784c2.165 4.117 0.721 8.67 0 12.784z m0 0M485.81 465.377c-125.956 0-228.061-102.103-228.061-228.055 0-125.956 102.105-228.06 228.061-228.06 125.95 0 228.055 102.104 228.055 228.06 0 125.952-102.105 228.055-228.055 228.055z m0 0" p-id="28004"></path><path d="M564.955 742.69a254.206 254.206 0 0 1 91.427-120.313 247.345 247.345 0 0 1 189.063-40.585 477.538 477.538 0 0 0-183.431-132.733c-42.75 39.719-97.417 64.27-155.484 69.757h-0.721c-1.73 0.166-3.465 0.309-5.196 0.436l-1.085 0.07c-1.608 0.114-3.224 0.21-4.838 0.292l-1.3 0.072-4.838 0.144h-1.228c-3.994 0.088-7.996 0.088-11.99 0h-1.228l-4.838-0.144h-1.3a225.956 225.956 0 0 1-4.837-0.364h-1.086c-1.728-0.148-3.465-0.32-5.196-0.506h-0.723a264.796 264.796 0 0 1-155.482-69.757C183.226 496.937 92.88 632.629 29.473 856.069a72.229 72.229 0 0 0 11.852 63.145 72.2 72.2 0 0 0 57.477 28.711l223.074 0.723v0.87l159.455-0.434 102.767 0.293c-35.39-61.964-43.836-138.807-19.143-206.686z m0 0" p-id="28005"></path><path d="M798.72 632.779c-106.369 0-192.6 86.227-192.6 192.596 0 106.375 86.231 192.602 192.6 192.602 106.371 0 192.602-86.227 192.602-192.602-0.002-106.37-86.233-192.596-192.602-192.596z m128.182 150.71l-14.076 15.385-97.785 107.31c-10.327 11.412-27.66 9.317-38.271 0l-10.111-8.81-70.05-61.456c-11.412-9.966-9.388-28.095 0-38.275 10.324-11.34 27.658-9.39 38.27 0l10.112 8.81 48.82 42.754 94.822-103.993c10.111-11.19 27.874-9.603 38.27 0 11.122 10.11 9.537 27.808 0 38.275z m0 0" p-id="28006"></path></svg>