<?xml version="1.0" standalone="no"?><!DOCTYPE svg PUBLIC "-//W3C//DTD SVG 1.1//EN" "http://www.w3.org/Graphics/SVG/1.1/DTD/svg11.dtd"><svg t="1728628177636" class="icon" viewBox="0 0 1024 1024" version="1.1" xmlns="http://www.w3.org/2000/svg" p-id="4849" xmlns:xlink="http://www.w3.org/1999/xlink" width="200" height="200"><path d="M624.64 690.0224l-102.0416-0.3584c-18.2784 0.7168-23.9104 11.0592-31.8464 20.48-3.4816 4.096-7.424 9.8816-11.1104 14.8992-15.36 20.48-42.8544 54.6304-51.712 76.2368-8.5504 20.48-5.12 72.5504-5.12 98.2528 0 41.6256-6.5024 64.5632 43.7248 58.6752 4.3008-10.24 3.7376-16.9472 9.5744-27.392 33.0752-59.8528 128-56.32 145.664 27.392 16.7424 0 22.016-12.6464 22.016-28.9792V721.92c0.0512-17.2032-3.0208-29.6448-19.1488-31.8976z m-47.2064 133.888c-30.72 1.024-85.1456 0.4608-117.3504 0 0.4608-11.9296 30.72-50.2784 40.0896-63.488 7.936-11.264 15.0016-25.6 25.6-26.1632 14.2848-0.768 37.1712-0.6656 51.5072 0z m419.84 47.0528V640c0-33.2288-2.048-40.0384-35.84-40.0384h-227.84c-77.7216 0-67.7376-7.3728-67.7376 86.6816V916.48c0 33.536 0.4608 42.0864 35.2256 41.984h75.1104a78.08 78.08 0 0 1 154.88 0h38.144c12.544 0 21.1968-3.3792 25.6-12.6464s2.4576-60.416 2.4576-74.8544zM865.28 919.296c-30.72-7.8336-55.4496 14.8992-61.0304 38.912a51.6608 51.6608 0 0 0 38.3488 61.9008 50.7904 50.7904 0 0 0 60.8256-38.5536 51.2 51.2 0 0 0-38.144-62.2592z m-316.7232-1.024a50.7904 50.7904 0 0 0-54.4768 46.08 50.8416 50.8416 0 1 0 54.4768-46.08z m271.8208-406.8864h175.2576V244.5312c0-9.5744-18.2272-14.6944-25.6-18.0736L924.16 204.8c-6.4-2.8672-9.5744-5.12-15.9232-8.0896-11.776-5.12-19.4048-9.216-31.232-14.4384-55.7056-25.1392-126.9248-63.232-182.3744-87.3472l-168.96-81.0496c-30.0544-14.7456-23.1936-14.8992-46.08-4.4032L328.3968 86.6304c-10.24 5.12-19.968 9.3696-30.72 15.0528L56.832 224.256c-6.5024 3.4304-27.8016 9.3696-27.8016 17.9712v778.5472H204.288V384.4096h615.7824zM256 708.5568h108.032v-92.5696H256z m0 128.3072h108.032V742.4H256z" p-id="4850"></path></svg>