<?xml version="1.0" standalone="no"?><!DOCTYPE svg PUBLIC "-//W3C//DTD SVG 1.1//EN" "http://www.w3.org/Graphics/SVG/1.1/DTD/svg11.dtd"><svg t="1729240905663" class="icon" viewBox="0 0 1024 1024" version="1.1" xmlns="http://www.w3.org/2000/svg" p-id="66195" xmlns:xlink="http://www.w3.org/1999/xlink" width="200" height="200"><path d="M887.6 64.6H285.1c-39.8 0-72.4 32.6-72.4 72.4v31h547.7c52.9 0 96.2 43.3 96.2 96.2V812h31c39.8 0 72.4-32.6 72.4-72.4V137.1c0-39.9-32.6-72.5-72.4-72.5z" p-id="66196"></path><path d="M738.9 212H136.4C96.6 212 64 244.6 64 284.4v602.5c0 39.8 32.6 72.4 72.4 72.4h602.5c39.8 0 72.4-32.6 72.4-72.4V284.4c0-39.8-32.6-72.4-72.4-72.4zM482 692.5l-96.7 96.7c-22.2 22.2-51.8 34.5-83.4 34.5-31.6 0-61-12.2-83.4-34.5-22.2-22.2-34.5-51.8-34.5-83.4 0-31.4 12.2-61 34.5-83.4L298 543c12.9-12.9 33.9-12.9 46.9 0 12.9 12.9 12.9 33.9 0 46.9l-79.4 79.4c-9.7 9.7-15.1 22.8-15.1 36.5 0 13.8 5.4 26.8 15.1 36.5s22.8 15.1 36.5 15.1c13.8 0 26.8-5.4 36.5-15.1l96.7-96.7c17.6-17.6 20.2-45.2 6.2-65.6-10.3-15.1-6.5-35.7 8.6-46 15.1-10.3 35.7-6.5 46 8.6 31.9 46.8 26 109.9-14 149.9z m174.8-143.8l-79.4 79.4c-12.9 12.9-33.9 12.9-46.9 0-12.9-12.9-12.9-33.9 0-46.9l79.4-79.4c9.7-9.7 15.1-22.8 15.1-36.5 0-13.8-5.4-26.8-15.1-36.5-20.2-20.2-52.9-20.2-73 0l-96.7 96.7c-17.6 17.6-20.2 45.2-6.2 65.6 10.3 15.1 6.5 35.7-8.6 46-5.7 3.9-12.2 5.8-18.6 5.8-10.5 0-20.9-5.1-27.3-14.4-32-46.8-26.1-109.7 14-149.8l96.7-96.7c45.9-45.9 120.7-45.9 166.6 0 22.2 22.2 34.5 51.8 34.5 83.4 0 31.5-12.3 61.1-34.5 83.3z" p-id="66197"></path></svg>