<?xml version="1.0" standalone="no"?><!DOCTYPE svg PUBLIC "-//W3C//DTD SVG 1.1//EN" "http://www.w3.org/Graphics/SVG/1.1/DTD/svg11.dtd"><svg t="1728628249608" class="icon" viewBox="0 0 1024 1024" version="1.1" xmlns="http://www.w3.org/2000/svg" p-id="6946" xmlns:xlink="http://www.w3.org/1999/xlink" width="200" height="200"><path d="M402.762 331.352h264.093v44.021H402.762v-44.02z m0 176.051H534.73v44.02H402.762v-44.02z m0 176.083h43.989v44.02h-43.989v-44.02zM214.741 384.184l30.804 30.804 30.805-30.804 61.642-61.61-30.837-30.805-61.61 61.61-30.804-30.805-30.837 30.805 30.837 30.805z m30.804 145.246l-30.804-30.805-30.837 30.805 30.837 30.836 30.804 30.805 30.805-30.805 61.642-61.641-30.837-30.837-61.61 61.642z m61.61 114.377l-61.61 61.673-30.804-30.773-30.837 30.773 30.837 30.805 30.804 30.773 30.805-30.773 61.642-61.578-30.837-30.9zM764.281 614.374c97.235 0 179.115 81.817 179.115 179.084 0 97.363-81.88 179.18-179.115 179.18-97.14 0-179.083-81.913-179.083-179.18 0-97.203 81.88-179.084 179.083-179.084z m0-51.235a229.36 229.36 0 0 0-230.287 230.319c0 128.072 102.311 230.35 230.287 230.35s230.35-102.278 230.35-230.35a229.393 229.393 0 0 0-230.35-230.319z" p-id="6947"></path><path d="M789.915 767.92V665.514H738.71V819.09h153.514v-51.17h-102.31z" p-id="6948"></path><path d="M801.31 37.86H666.28C666.28 16.919 648.978 0 627.622 0H299.526c-21.292 0-38.562 16.919-38.562 37.86H106.588C63.972 37.86 29.4 71.76 29.4 113.58v794.957c0 41.755 34.572 75.688 77.188 75.688h424.533v-75.688h-385.97a38.21 38.21 0 0 1-38.563-37.86V151.44c0-20.877 17.302-37.86 38.562-37.86h115.814v37.86c0 20.909 17.27 37.86 38.562 37.86H627.59c21.356 0 38.658-16.92 38.658-37.86v-37.86h96.437c21.292 0 38.594 16.95 38.594 37.86V539.58h77.188V113.579c0-41.818-34.54-75.72-77.156-75.72z" p-id="6949"></path></svg>