<?xml version="1.0" standalone="no"?><!DOCTYPE svg PUBLIC "-//W3C//DTD SVG 1.1//EN" "http://www.w3.org/Graphics/SVG/1.1/DTD/svg11.dtd"><svg t="1729150401573" class="icon" viewBox="0 0 1024 1024" version="1.1" xmlns="http://www.w3.org/2000/svg" p-id="4286" xmlns:xlink="http://www.w3.org/1999/xlink" width="200" height="200"><path d="M763.931719 535.407775 763.931719 674.973466 763.931719 954.104832C763.931719 953.659763 140.54965 953.302546 140.54965 953.302546 140.886334 953.302546 141.241379 156.482278 141.241379 156.482278 141.241379 156.927347 338.799581 157.284564 338.799581 157.284564L437.924546 157.284564 450.315123 157.284564C469.816497 157.284564 485.625468 141.475575 485.625468 121.974219 485.625468 102.472845 469.816497 86.663874 450.315123 86.663874L437.924546 86.663874 338.799581 86.663874 140.54965 86.663874C101.916425 86.663874 70.62069 117.888653 70.62069 156.482278L70.62069 954.104832C70.62069 992.722202 101.946615 1023.923235 140.54965 1023.923235L764.623448 1023.923235C803.256497 1023.923235 834.552408 992.698439 834.552408 954.104832L834.552408 674.973466 834.552408 535.407775 834.552408 500.51637C834.552408 481.014996 818.743261 465.206025 799.242063 465.206025 779.74069 465.206025 763.931719 481.014996 763.931719 500.51637L763.931719 535.407775ZM867.928276 225.970847C867.928276 284.961598 834.777865 338.019858 783.169677 364.401611 765.805639 373.278049 758.925065 394.550219 767.801556 411.914328 776.67787 429.27842 797.950058 436.159029 815.314273 427.282591 890.314858 388.942636 938.548966 311.742605 938.548966 225.970847 938.548966 186.903746 928.593037 149.200455 909.912452 115.800488 900.39296 98.780372 878.878543 92.699842 861.858428 102.219246 844.838312 111.73865 838.757694 133.253173 848.277186 150.273289 861.103316 173.205769 867.928276 199.052147 867.928276 225.970847ZM582.329909 141.259811C592.981098 124.924081 588.372745 103.046886 572.036943 92.39575 555.701319 81.744596 533.824088 86.352878 523.172899 102.688609 520.707708 106.4695 518.355862 110.323836 516.12107 114.246568 506.467399 131.190872 512.377644 152.752817 529.321843 162.406488 546.266218 172.06016 567.828127 166.149932 577.481799 149.205628 579.017799 146.509524 580.634659 143.859747 582.329909 141.259811ZM591.096938 625.269442C610.598312 625.269442 626.407283 609.460471 626.407283 589.959097 626.407283 570.457741 610.598312 554.648753 591.096938 554.648753L244.441512 554.648753C224.940138 554.648753 209.131167 570.457741 209.131167 589.959097 209.131167 609.460471 224.940138 625.269442 244.441512 625.269442L591.096938 625.269442ZM244.441512 727.976483C224.940138 727.976483 209.131167 743.785472 209.131167 763.286828 209.131167 782.788202 224.940138 798.597173 244.441512 798.597173L660.428094 798.597173C679.929468 798.597173 695.738439 782.788202 695.738439 763.286828 695.738439 743.785472 679.929468 727.976483 660.428094 727.976483L244.441512 727.976483ZM826.840629 200.561876C840.630201 186.772339 840.630201 164.415064 826.840629 150.62551 813.051057 136.835972 790.693782 136.835972 776.90421 150.62551 761.683862 165.845839 761.683862 165.845839 756.940977 170.588707 743.151404 184.378262 743.151404 206.735537 756.940977 220.525074 770.730549 234.314628 793.087823 234.314628 806.877396 220.525074 811.620281 215.782206 811.620281 215.782206 826.840629 200.561876ZM712.578119 0C635.277065 0 564.599349 39.152569 523.172899 102.688609 512.52171 119.024358 517.130063 140.901535 533.465865 151.552689 549.80149 162.203825 571.67872 157.59556 582.329909 141.259811 610.853782 97.512377 659.398444 70.62069 712.578119 70.62069 769.50069 70.62069 820.98123 101.469855 848.277186 150.273289 857.796502 167.293405 879.311095 173.373934 896.331211 163.85453 913.351327 154.335126 919.431768 132.820586 909.912452 115.800488 870.254874 44.895126 795.334797 0 712.578119 0ZM695.781517 231.748167C696.019686 231.510069 696.520739 231.509063 696.838003 231.826326 691.563873 226.552196 691.563873 226.552196 675.741484 210.729843 667.830378 202.818666 667.830378 202.818666 661.23776 196.22603 647.448188 182.436476 625.090913 182.436476 611.301341 196.22603 597.511768 210.015567 597.511768 232.372842 611.301341 246.162397 617.893959 252.75505 617.893959 252.75505 625.805241 260.666227 641.627454 276.48858 641.627454 276.48858 646.901583 281.762692 674.208309 309.069294 718.421451 308.980966 745.717937 281.684533L806.877396 220.525074C820.666968 206.735537 820.666968 184.378262 806.877396 170.588707 793.087823 156.799153 770.730549 156.799153 756.940977 170.588707L695.781517 231.748167ZM486.607272 225.970847C486.607272 350.771112 587.777766 451.941711 712.578119 451.941711 748.744563 451.941711 783.763597 443.411085 815.314273 427.282591 832.678312 418.406153 839.558886 397.133983 830.682394 379.769874 821.80608 362.405782 800.533892 355.525173 783.169677 364.401611 761.513843 375.472004 737.503161 381.321022 712.578119 381.321022 626.780513 381.321022 557.227961 311.768382 557.227961 225.970847 557.227961 198.629782 564.269374 172.396262 577.481799 149.205628 587.13547 132.261323 581.225225 110.699379 564.281026 101.045707 547.336651 91.392018 525.774742 97.302246 516.12107 114.246568 496.879228 148.02003 486.607272 186.289223 486.607272 225.970847Z" p-id="4287"></path></svg>