<?xml version="1.0" standalone="no"?><!DOCTYPE svg PUBLIC "-//W3C//DTD SVG 1.1//EN" "http://www.w3.org/Graphics/SVG/1.1/DTD/svg11.dtd"><svg t="1729240337368" class="icon" viewBox="0 0 1024 1024" version="1.1" xmlns="http://www.w3.org/2000/svg" p-id="49286" xmlns:xlink="http://www.w3.org/1999/xlink" width="200" height="200"><path d="M460.2 849.8h-232c-11.1 0-20.4-10.2-20.4-22.2v-635c0-12 9.3-22.2 20.4-22.2h514.7c11.1 0 20.4 10.2 20.4 22.2v312.1c0 16.6 13.4 30 30 30s30-13.4 30-30V192.6c0-45.3-36.1-82.2-80.4-82.2H228.1c-44.3 0-80.4 36.9-80.4 82.2v634.9c0 45.3 36.1 82.2 80.4 82.2h232c16.6 0 30-13.4 30-30s-13.4-29.9-29.9-29.9z" p-id="49287"></path><path d="M856.1 783.3c-11.8-8.1-18.9-21.5-18.9-35.8 0-14.2 7-27.6 18.6-35.6l13.6-9.5-5.6-15.5c-7.5-21.1-18.8-40.5-33.6-57.5l-10.7-12.3-14.7 6.9c-5.8 2.7-12 4.1-18.3 4.1-22.6 0-41.2-16.9-43.3-39.4l-1.5-16.3-16-3c-21.9-4.1-44.7-4.1-66.5 0l-16 3-1.5 16.3c-2 22.5-20.7 39.4-43.3 39.4-6.3 0-12.6-1.4-18.3-4.1l-14.7-6.9-10.7 12.3c-14.7 17-25.9 36.4-33.6 57.5l-5.6 15.5 13.6 9.5c11.7 8.2 18.6 21.5 18.6 35.6 0 14.3-7.1 27.8-18.9 35.8l-13.6 9.3 5.4 15.6c7.3 21.1 18.4 40.5 32.9 57.6l10.8 12.7 15.1-7.3c5.9-2.9 12.3-4.3 18.9-4.3 22.8 0 41.9 17.8 43.4 40.5l1.1 16.7 16.5 3c10.9 2 22.1 3 33.2 3 11.1 0 22.3-1 33.2-3l16.5-3 1.1-16.7c1.5-22.7 20.6-40.5 43.4-40.5 6.7 0 13 1.5 18.9 4.3l15.1 7.3 10.8-12.7c14.5-17.1 25.6-36.5 32.9-57.6l5.4-15.6-13.7-9.3z m-48.7 43.1c-6.8-1.6-13.7-2.5-20.8-2.5-39.2 0-72.9 26.5-83.2 62.9-7.2 0.5-14.5 0.5-21.7 0-10.3-36.4-44-62.9-83.2-62.9-7.1 0-14 0.9-20.8 2.5-4.1-6-7.8-12.4-10.9-18.9 15.3-15.9 24.1-37.4 24.1-59.9 0-22.3-8.6-43.5-23.6-59.3 3.2-6.8 7-13.2 11.3-19.4 6.5 1.5 13.1 2.3 19.8 2.3 21.7 0 42.5-8.1 58.5-22.7 11.5-10.5 19.8-23.8 24.2-38.4 7.5-0.6 15.1-0.6 22.6 0 4.5 14.6 12.8 27.9 24.2 38.4 16 14.6 36.7 22.7 58.5 22.7 6.8 0 13.4-0.8 19.8-2.3 4.3 6.1 8.1 12.6 11.3 19.4-15 15.9-23.6 37.1-23.6 59.3 0 22.6 8.8 43.9 24.1 59.9-2.9 6.5-6.6 12.8-10.6 18.9z" p-id="49288"></path><path d="M692.5 671.7c-42.2 0-76.6 34.3-76.6 76.6 0 42.2 34.3 76.6 76.6 76.6s76.6-34.3 76.6-76.6-34.4-76.6-76.6-76.6z m0 110.1c-18.5 0-33.6-15.1-33.6-33.6s15.1-33.6 33.6-33.6 33.6 15.1 33.6 33.6-15.1 33.6-33.6 33.6zM651.8 296H319.1c-16.6 0-30 13.4-30 30s13.4 30 30 30h332.7c16.6 0 30-13.4 30-30s-13.4-30-30-30z m30 186.1c0-16.6-13.4-30-30-30H319.1c-16.6 0-30 13.4-30 30s13.4 30 30 30h332.7c16.6 0 30-13.4 30-30zM319.6 608.2c-16.6 0-30 13.4-30 30s13.4 30 30 30h139.8c16.6 0 30-13.4 30-30s-13.4-30-30-30H319.6z" p-id="49289"></path></svg>